<svg id="Ebene_1" data-name="Ebene 1" xmlns="http://www.w3.org/2000/svg" viewBox="0 0 847 1530">
  <defs>
    <style>
      .cls-1 {
        fill: none;
        stroke: #5338e4;
        stroke-miterlimit: 10;
      }
    </style>
  </defs>
  <path class="cls-1" d="m1.5,0c3.69,639.83,3.73,876.62,2,901-.04.63-1.19,16.58,0,38,1.18,21.41,1.88,32.35,7,44,9.16,20.85,25.8,31.97,32,36,21.01,13.66,42.53,15.4,52,16,40.99,2.59,168.03,3.54,340,0,111.67-1,223.33-2,335-3,0,0,77-1,77,96s-78.17,96.5-78.17,96.5H105.85S.5,1222.37.5,1326.68s106,105.32,106,105.32h668.35s71.65-4,71.65,98"/>
</svg>